<?xml version="1.0" encoding="utf-8"?>
<!-- Generator: Adobe Illustrator 25.2.1, SVG Export Plug-In . SVG Version: 6.00 Build 0)  -->
<svg version="1.1" id="Layer_1" xmlns="http://www.w3.org/2000/svg" xmlns:xlink="http://www.w3.org/1999/xlink" x="0px" y="0px"
	 viewBox="0 0 295.3 418.16" style="enable-background:new 0 0 295.3 418.16;" xml:space="preserve">
<style type="text/css">
	.st0{fill:#FFFFFF;}
	.st1{fill:#3B434F;}
	.st2{fill:#EDF1F1;}
	.st3{fill:#C1BFBD;}
</style>
<path id="body-bg-flat_9_" class="st0" d="M1.36,415.58c0,0-10.3-90.31,78.44-100.39h37.97V297.7c0,0,26.71,11.47,53.76,1.28
	l0.85,16.21h44.37c0,0,77.27,7.71,72.6,100.39H1.36z"/>
<path id="Rounded_Rectangle_13_6_" class="st1" d="M290.03,418.16L290.03,418.16H5.52l0,0H0l1.38-23.53
	c2.69-45.94,38.89-81,80.31-81h31.52v4.69H84.2c-39.92,0-74.81,33.75-77.4,77.97l-0.96,16.32h283.44l-0.53-16.32
	c-2.59-44.22-37.48-77.97-77.4-77.97h-38.83v-4.69h41.09c41.42,0,77.62,35.06,80.31,81l1.38,23.53H290.03z"/>
<path id="Ellipse_4_6_" class="st1" d="M143.08,366.54c-22.86,0-41.39-18.53-41.39-41.39c0-4,0.58-7.86,1.64-11.52h0.07h4.39h7.55
	v4.69h-8.75c-0.41,2.21-0.64,4.49-0.64,6.83c0,20.5,16.62,37.12,37.12,37.12c20.5,0,37.12-16.62,37.12-37.12
	c0-2.33-0.22-4.61-0.64-6.83h-8.75v-4.69h7.55h4.39h0.07c1.06,3.66,1.64,7.52,1.64,11.52C184.47,348.01,165.94,366.54,143.08,366.54
	z"/>
<path id="neck_6_" class="st1" d="M118.76,296.72v26.32c0,13.66,11.08,24.73,24.75,24.73s24.75-11.07,24.75-24.73v-25.77
	c1.44-0.44,2.86-0.91,4.27-1.42v27.38c0,16.15-13.09,29.24-29.23,29.24s-29.23-13.09-29.23-29.24v-28.19
	C115.61,295.64,117.18,296.2,118.76,296.72z"/>
<path id="_x32__copy_5_13_" class="st0" d="M144.57,29.04c53.08,0,94.97,49.6,93.61,109.2l-1.45,63.34
	c-1.28,56.15-42.53,100.53-92.16,100.53s-90.88-44.38-92.16-100.53l-1.45-63.34C49.6,78.64,91.5,29.04,144.57,29.04z"/>
<path id="_x32__line_13_" class="st1" d="M242.45,136.28l-1.52,65.91c-1.34,58.43-44.57,104.61-96.57,104.61
	s-95.23-46.18-96.57-104.61l-1.52-65.91C44.85,74.26,88.74,22.64,144.36,22.64S243.88,74.26,242.45,136.28z M144.15,29.47
	c-52.35,0-93.67,49.21-92.33,108.35l1.43,62.85c1.27,55.71,41.95,99.74,90.9,99.74s89.64-44.03,90.9-99.74l1.43-62.85
	C237.82,78.68,196.5,29.47,144.15,29.47z"/>
<path id="Rounded_Rectangle_3_6_" class="st1" d="M134.12,268.4h20.48c0.94,0,1.71,0.76,1.71,1.71c0,0.94-0.76,1.71-1.71,1.71
	h-20.48c-0.94,0-1.71-0.76-1.71-1.71C132.41,269.17,133.18,268.4,134.12,268.4z"/>
<path id="_x32__6_" class="st1" d="M116.2,247.98l2.38-3.33c7.64,4.37,16.72,6.9,26.46,6.9c9.85,0,19.02-2.59,26.71-7.05l2.49,3.44
	c-8.37,4.84-18.34,7.66-29.05,7.66C134.5,255.6,124.55,252.8,116.2,247.98z"/>
<path id="Shape_11_copy_20_" class="st0" d="M46.17,145.89c-0.01,0-1.05-0.83-3-1.44c-0.98-0.31-2.19-0.56-3.58-0.62
	c-0.35-0.02-0.7-0.02-1.07-0.01s-0.74,0.03-1.12,0.08c-0.76,0.08-1.54,0.23-2.33,0.45c-3.15,0.91-6.37,3.11-8.25,7.65
	c-0.95,2.27-1.57,5.13-1.74,8.71c-0.04,0.89-0.05,1.83-0.04,2.82c0.02,0.99,0.07,2.02,0.15,3.1c0.16,2.16,0.46,4.52,0.9,7.09
	c-0.01,0-0.41,7.77,2.37,16.7c2.61,8.73,8.89,19.46,20.47,22.52C47.6,190.76,47.56,168.17,46.17,145.89L46.17,145.89z"/>
<path id="Shape_3_20_" class="st1" d="M47.49,146.78c0,0-20.18-6.25-19.47,14.49c0,0,3,30.08,4.31,32.85c0,0,7.92,17.51,21,18.29
	c12.78,0.76,0,0,0,0l0.16,5.64c0,0-22.98-2.95-27.42-29.43l-3.5-24.06c0,0-2.72-31.84,23.67-23.75c25.71,7.89,0,0,0,0L47.49,146.78"
	/>
<path id="Shape_4_20_" class="st1" d="M40.83,188.57c0,0-1.13,0.85-2.1,0.85s-2.09-0.85-2.09-0.85l-2.08-20.98
	c0,0,2.87-10.33,15.06-4.87l0.29,6c0,0-10.7-3.79-10.47,0.93C39.65,174.19,40.83,188.57,40.83,188.57z"/>
<path id="Shape_11_copy_x5F_1_18_" class="st0" d="M242.17,145.94c0.01,0,1.05-0.83,3.02-1.44c0.98-0.31,2.2-0.56,3.59-0.62
	c0.35-0.02,0.7-0.02,1.07-0.01c0.37,0.01,0.74,0.03,1.12,0.08c0.76,0.08,1.55,0.23,2.34,0.45c3.16,0.9,6.39,3.11,8.29,7.65
	c0.95,2.27,1.58,5.13,1.75,8.7c0.04,0.89,0.05,1.83,0.04,2.82c-0.02,0.99-0.07,2.02-0.15,3.1c-0.16,2.16-0.46,4.52-0.9,7.09
	c0.01,0,0.41,7.76-2.38,16.69c-2.62,8.73-8.92,19.45-20.56,22.51C240.73,190.78,240.77,168.2,242.17,145.94L242.17,145.94z"/>
<path id="Shape_3_x5F_1_20_" class="st1" d="M240.84,146.83c0,0,20.26-6.25,19.55,14.48c0,0-3.02,30.06-4.33,32.83
	c0,0-7.96,17.5-21.09,18.28c-12.84,0.76,0,0,0,0l-0.16,5.64c0,0,23.09-2.94,27.54-29.41l3.52-24.05c0,0,2.73-31.82-23.77-23.73
	c-25.82,7.88,0,0,0,0L240.84,146.83"/>
<path id="Shape_4_x5F_1_20_" class="st1" d="M247.53,188.59c0,0,1.13,0.85,2.11,0.85s2.09-0.85,2.09-0.85l2.09-20.97
	c0,0-2.89-10.33-15.13-4.87l-0.29,6c0,0,10.74-3.79,10.52,0.93C248.71,174.22,247.53,188.59,247.53,188.59z"/>
<path id="new_vector_shape_done_20_" class="st1" d="M152.25,186.91c0.5,0,1,0,1.49,0c3.09,4.19,4.34,10.64,5.97,16.21
	c0.51,1.73,0.02,4.75-0.43,5.97c-1.62,4.48-6.7,4.4-10.88,6.4c-1.12,0.54-1.96,1.47-3.41,1.71c-0.95-0.84-2.09-1-2.56-2.35
	c-1.15-1.59,0.33-2.58,1.49-3.2c2.11-1.13,8.61-2.24,9.39-4.27c0.96-1.1,0.32-4.39,0-5.55c-0.83-2.96-1.22-5.44-2.35-8.11
	c-0.75-1.77-2.06-3.65-1.28-5.76C150.34,187.7,151.73,187.39,152.25,186.91z"/>
<path id="Rounded_Rectangle_9_2_" class="st1" d="M90.17,156.79h15.36c2.12,0,3.84,2.06,3.84,4.61s-1.72,4.61-3.84,4.61H90.17
	c-2.12,0-3.84-2.06-3.84-4.61S88.05,156.79,90.17,156.79z"/>
<path id="Rounded_Rectangle_9_copy_2_" class="st1" d="M184.04,155.76h15.36c2.12,0,3.84,2.06,3.84,4.61c0,2.54-1.72,4.61-3.84,4.61
	h-15.36c-2.12,0-3.84-2.06-3.84-4.61C180.2,157.83,181.92,155.76,184.04,155.76z"/>
<path id="Ellipse_3_11_" class="st2" d="M195.99,182.22c5.89,0,10.67,4.78,10.67,10.67s-4.78,10.67-10.67,10.67
	c-5.89,0-10.67-4.78-10.67-10.67S190.09,182.22,195.99,182.22z"/>
<path id="Ellipse_3_copy_18_" class="st2" d="M92.73,182.22c5.89,0,10.67,4.78,10.67,10.67s-4.78,10.67-10.67,10.67
	c-5.89,0-10.67-4.78-10.67-10.67S86.84,182.22,92.73,182.22z"/>
<path id="Shape_1_copy_5_5_" class="st1" d="M229.69,142.96v31.57c0,7.72-7.53,19.76-19.79,20.44c-1.8-0.09-38.24,0.04-38.24,0.04
	c-16.38,0-19.63-19.63-19.63-19.63v-21.33h-15.36v21.33c0,0-3.25,19.63-19.63,19.63c0,0-36.43-0.12-38.24-0.04
	c-12.26-0.69-19.79-12.73-19.79-20.44v-31.57H45.37v-8.53h79.36c0,0,11.95,1.93,11.95,10.24h15.36c0-8.31,11.95-10.24,11.95-10.24
	h79.36v8.53H229.69z M128.15,147.23c0-3.04-3.41-3.41-3.41-3.41H67.56v29.87c0,9.31,12.8,12.8,12.8,12.8h34.99
	c12.04,0,12.8-12.8,12.8-12.8S128.15,150.27,128.15,147.23z M221.16,143.82h-57.17c0,0-3.41,0.37-3.41,3.41c0,3.04,0,26.45,0,26.45
	s0.76,12.8,12.8,12.8h34.99c0,0,12.8-3.49,12.8-12.8V143.82z M209.21,195.02c0.23,0,0.46-0.02,0.69-0.04
	C210.09,194.99,209.9,195,209.21,195.02z M78.82,194.98c0.23,0.01,0.46,0.03,0.69,0.04C78.82,195,78.62,194.99,78.82,194.98z"/>
<path id="fill_copy_2_" class="st3" d="M51.54,141.95c0,0-3.82-40.64,21.14-62.13c0,0,59.35,58.33,139.95,0
	c0,0,28.96,28.97,26.45,60.59c0,0,48.84-56.02,11.09-66.56c0,0-9.31,2.71-12.8-11.09c-3.49-13.8-10-58.38-98.13-59.73
	S57.32,55.92,57.32,55.92C57.6,56.09,8.37,80.03,51.54,141.95z"/>
<path id="line_3_" class="st1" d="M239.51,145.1c-1.03-35.08-26.88-61.44-26.88-61.44c-80.6,55.84-139.52,0-139.52,0
	c-18.87,14.45-21.33,61.01-21.33,61.01c-48.68-62.13,2.84-89.43,2.56-89.6c0,0-4.93-56.55,83.2-55.04
	c91.79,1.57,98.48,45.77,102.4,61.44c3.12,12.5,14.08,10.24,14.08,10.24C293.22,86.94,239.51,145.1,239.51,145.1z M248.89,76.4
	c0,0-10.44,2.72-14.51-13.65c-3.43-13.82-7.02-55.4-95.15-56.75S59.88,58.06,59.88,58.06c0.28,0.17-44.29,21.35-11.52,73.81
	c0,0-1.07-34.4,23.89-55.89c0,0,57.42,60.65,141.23,0.43c0,0,26.56,25.29,28.59,56.32C242.07,132.72,281.23,83.5,248.89,76.4z"/>
</svg>
