<?xml version="1.0" encoding="utf-8"?>
<!-- Generator: Adobe Illustrator 25.2.1, SVG Export Plug-In . SVG Version: 6.00 Build 0)  -->
<svg version="1.1" id="Layer_1" xmlns="http://www.w3.org/2000/svg" xmlns:xlink="http://www.w3.org/1999/xlink" x="0px" y="0px"
	 viewBox="0 0 295.3 437.34" style="enable-background:new 0 0 295.3 437.34;" xml:space="preserve">
<style type="text/css">
	.st0{fill:#FFFFFF;}
	.st1{fill:#3B434F;}
	.st2{opacity:0.0588;fill:#3B434F;enable-background:new    ;}
	.st3{fill:#EDF1F1;}
</style>
<path id="body-bg-flat_copy_2_" class="st0" d="M2.72,433.75c0,0-6.61-89.99,78.08-98.39h37.97v-17.49c0,0,26.71,11.47,53.76,1.28
	l0.85,16.21h44.37c0,0,75.99,2.98,72.53,99.24L2.72,433.75z"/>
<path id="Rounded_Rectangle_13" class="st1" d="M290.03,437.34L290.03,437.34H5.52l0,0H0l1.38-23.53c2.69-45.94,38.89-81,80.31-81
	h31.52v4.69H84.2c-39.92,0-74.81,33.75-77.4,77.97l-0.96,16.32h283.44l-0.53-16.32c-2.59-44.22-37.48-77.97-77.4-77.97h-38.83v-4.69
	h41.09c41.42,0,77.62,35.06,80.31,81l1.38,23.53H290.03z"/>
<path id="Ellipse_4" class="st1" d="M143.08,385.71c-22.86,0-41.39-18.53-41.39-41.39c0-4,0.58-7.86,1.64-11.52h0.07h4.39h7.55v4.69
	h-8.75c-0.41,2.21-0.64,4.49-0.64,6.83c0,20.5,16.62,37.12,37.12,37.12c20.5,0,37.12-16.62,37.12-37.12c0-2.33-0.22-4.61-0.64-6.83
	h-8.75v-4.69h7.55h4.39h0.07c1.06,3.66,1.64,7.52,1.64,11.52C184.47,367.18,165.94,385.71,143.08,385.71z"/>
<path id="neck" class="st1" d="M118.76,315.9v26.32c0,13.66,11.08,24.73,24.75,24.73s24.75-11.07,24.75-24.73v-25.77
	c1.44-0.44,2.86-0.91,4.27-1.42v27.38c0,16.15-13.09,29.24-29.23,29.24s-29.23-13.09-29.23-29.24v-28.19
	C115.61,314.82,117.18,315.38,118.76,315.9z"/>
<path id="_x32__copy_5_6_" class="st0" d="M144.57,48.22c53.08,0,94.97,49.6,93.61,109.2l-1.45,63.34
	c-1.28,56.15-42.53,100.53-92.16,100.53s-90.88-44.38-92.16-100.53l-1.45-63.34C49.6,97.82,91.5,48.22,144.57,48.22z"/>
<path id="_x32__line_6_" class="st1" d="M242.45,155.45l-1.52,65.91c-1.34,58.43-44.57,104.61-96.57,104.61
	S49.13,279.8,47.79,221.37l-1.52-65.91C44.85,93.44,88.74,41.82,144.36,41.82S243.88,93.44,242.45,155.45z M144.15,48.65
	c-52.35,0-93.67,49.21-92.33,108.35l1.43,62.85c1.27,55.71,41.95,99.74,90.9,99.74s89.64-44.03,90.9-99.74l1.43-62.85
	C237.82,97.86,196.5,48.65,144.15,48.65z"/>
<path id="_x31__copy_4_3_" class="st2" d="M239.79,166.41l-4.27,69.97c0,0-18.95,80.77-92.16,90.33v0.12
	c-0.14-0.02-0.28-0.04-0.43-0.06c-0.14,0.02-0.28,0.04-0.43,0.06v-0.12c-73.21-9.56-92.16-90.33-92.16-90.33l-4.27-69.97
	c19,84.33,34.99,89.6,34.99,89.6c-3.24-25.57,23.04-23.04,23.04-23.04c16.01,2.71,28.76,4.01,38.83,4.5
	c10.06-0.49,22.81-1.8,38.83-4.5c0,0,26.28-2.53,23.04,23.04C204.8,256.01,220.79,250.73,239.79,166.41z M192.34,264.68
	c-1.24-15.04-10.31-13.77-10.31-13.77c-16.12,4.74-28.78,7.38-38.67,8.72v-0.1c-9.82-1.33-22.39-3.94-38.4-8.65
	c0,0-9.01-1.27-10.24,13.65c0,0-3.62,14.95,8.53,21.33l15.36,16.21c0,0,10.5,3.33,10.24-9.39c0,0-1.07-9.48,5.12-11.09h9.39v0.28
	h9.45c6.23,1.62,5.16,11.19,5.16,11.19c-0.26,12.82,10.31,9.46,10.31,9.46l15.47-16.35C195.98,279.75,192.34,264.68,192.34,264.68z"
	/>
<path id="usta_6_" class="st1" d="M190.44,259.08c-7.76,6.73-25.27,13.14-45.65,13.14c-20.38,0-37.9-6.41-45.65-13.14
	c0,0-0.79-2.18,0.37-3.35c1.19-1.19,3.04-0.93,3.04-0.93c7.75,6.74,21.85,12.3,42.24,12.3c20.39,0,34.49-5.56,42.24-12.3
	c0,0,1.9-0.7,2.82,0.22C191.61,256.79,190.44,259.08,190.44,259.08z"/>
<path id="_x2D__6_" class="st1" d="M130.71,282.46h27.31v4.27h-27.31V282.46z"/>
<path id="Shape_11_copy_6_" class="st0" d="M46.17,165.07c-0.01,0-1.05-0.83-3-1.44c-0.98-0.31-2.19-0.56-3.58-0.62
	c-0.35-0.02-0.7-0.02-1.07-0.01s-0.74,0.03-1.12,0.08c-0.76,0.08-1.54,0.23-2.33,0.45c-3.15,0.91-6.37,3.11-8.25,7.65
	c-0.95,2.27-1.57,5.13-1.74,8.71c-0.04,0.89-0.05,1.83-0.04,2.82c0.02,0.99,0.07,2.02,0.15,3.1c0.16,2.16,0.46,4.52,0.9,7.09
	c-0.01,0-0.41,7.77,2.37,16.7c2.61,8.73,8.89,19.46,20.47,22.52C47.6,209.94,47.56,187.34,46.17,165.07L46.17,165.07z"/>
<path id="Shape_3_6_" class="st1" d="M47.49,165.96c0,0-20.18-6.25-19.47,14.49c0,0,3,30.08,4.31,32.85c0,0,7.92,17.51,21,18.29
	c12.78,0.76,0,0,0,0l0.16,5.64c0,0-22.98-2.95-27.42-29.43l-3.5-24.06c0,0-2.72-31.84,23.67-23.75c25.71,7.89,0,0,0,0L47.49,165.96"
	/>
<path id="Shape_4_6_" class="st1" d="M40.83,207.75c0,0-1.13,0.85-2.1,0.85s-2.09-0.85-2.09-0.85l-2.08-20.98
	c0,0,2.87-10.33,15.06-4.87l0.29,6c0,0-10.7-3.79-10.47,0.93C39.65,193.37,40.83,207.75,40.83,207.75z"/>
<path id="Shape_11_copy_x5F_1_6_" class="st0" d="M242.17,165.12c0.01,0,1.05-0.83,3.02-1.44c0.98-0.31,2.2-0.56,3.59-0.62
	c0.35-0.02,0.7-0.02,1.07-0.01c0.37,0.01,0.74,0.03,1.12,0.08c0.76,0.08,1.55,0.23,2.34,0.45c3.16,0.9,6.39,3.11,8.29,7.65
	c0.95,2.27,1.58,5.13,1.75,8.7c0.04,0.89,0.05,1.83,0.04,2.82c-0.02,0.99-0.07,2.02-0.15,3.1c-0.16,2.16-0.46,4.52-0.9,7.09
	c0.01,0,0.41,7.76-2.38,16.69c-2.62,8.73-8.92,19.45-20.56,22.51C240.73,209.96,240.77,187.38,242.17,165.12L242.17,165.12z"/>
<path id="Shape_3_x5F_1_6_" class="st1" d="M240.84,166.01c0,0,20.26-6.25,19.55,14.48c0,0-3.02,30.06-4.33,32.83
	c0,0-7.96,17.5-21.09,18.28c-12.84,0.76,0,0,0,0l-0.16,5.64c0,0,23.09-2.94,27.54-29.41l3.52-24.05c0,0,2.73-31.82-23.77-23.73
	c-25.82,7.88,0,0,0,0L240.84,166.01"/>
<path id="Shape_4_x5F_1_6_" class="st1" d="M247.53,207.77c0,0,1.13,0.85,2.11,0.85s2.09-0.85,2.09-0.85l2.09-20.97
	c0,0-2.89-10.33-15.13-4.87l-0.29,6c0,0,10.74-3.79,10.52,0.93C248.71,193.4,247.53,207.77,247.53,207.77z"/>
<path id="new_vector_shape_done_6_" class="st1" d="M152.25,206.09c0.5,0,1,0,1.49,0c3.09,4.19,4.34,10.64,5.97,16.21
	c0.51,1.73,0.02,4.75-0.43,5.97c-1.62,4.48-6.7,4.4-10.88,6.4c-1.12,0.54-1.96,1.47-3.41,1.71c-0.95-0.84-2.09-1-2.56-2.35
	c-1.15-1.59,0.33-2.58,1.49-3.2c2.11-1.13,8.61-2.24,9.39-4.27c0.96-1.1,0.32-4.39,0-5.55c-0.83-2.96-1.22-5.44-2.35-8.11
	c-0.75-1.77-2.06-3.65-1.28-5.76C150.34,206.88,151.73,206.56,152.25,206.09z"/>
<path id="Rounded_Rectangle_8_2_" class="st1" d="M93.16,173.23h5.97c3.3,0,5.97,2.67,5.97,5.97s-2.67,5.97-5.97,5.97h-5.97
	c-3.3,0-5.97-2.67-5.97-5.97S89.86,173.23,93.16,173.23z"/>
<path id="Rounded_Rectangle_8_copy_2_" class="st1" d="M190.44,173.23h5.97c3.3,0,5.97,2.67,5.97,5.97s-2.67,5.97-5.97,5.97h-5.97
	c-3.3,0-5.97-2.67-5.97-5.97S187.14,173.23,190.44,173.23z"/>
<path id="Ellipse_3_3_" class="st3" d="M195.99,201.39c5.89,0,10.67,4.78,10.67,10.67s-4.78,10.67-10.67,10.67
	c-5.89,0-10.67-4.78-10.67-10.67S190.09,201.39,195.99,201.39z"/>
<path id="Ellipse_3_copy_5_" class="st3" d="M92.73,201.39c5.89,0,10.67,4.78,10.67,10.67s-4.78,10.67-10.67,10.67
	c-5.89,0-10.67-4.78-10.67-10.67S86.84,201.39,92.73,201.39z"/>
<path id="R_copy_2_" class="st1" d="M171.69,158.19c0,0,25.54-14.6,43.79,1.49l4.83,0.75c0,0-6.18-22.5-51.2-7.87l1.25,4.19
	 M171.36,156.75c0,0,25.99-14.93,43.12,3.93l8.83-0.25c0,0-11.01-24.03-56.2-8.87l4.25,6.19"/>
<path id="R_copy_3_1_" class="st1" d="M116.8,158.28c0,0-25.46-14.48-43.65,1.47l-4.81,0.74c0,0,6.16-22.3,51.03-7.8l-1.25,4.16
	 M117.12,156.85c0,0-25.9-14.79-42.98,3.89l-8.8-0.25c0,0,10.97-23.82,56.01-8.79l-4.24,6.14"/>
<path id="Shape_1" class="st1" d="M52.36,209.75c0,0-43.06-16.93-48.82-42.51c-5.77-25.58-0.83-41.68,6.32-46.95
	c0,0-3.07-39.38,11.73-52.07c0,0,6.68-28.6,40.61-37.56c0,0,52.69-55.58,148.01-17.07c0,0,23.48,22.7,37.62,30.92
	c0.4,0.23,0.8,0.46,1.18,0.67c13.98,7.57,27.16,23.34,29.78,53.78c0,0-0.26,27.24,13.54,45.24c0,0,15.28,47.42-56.86,64.02
	l-2.71-65.73c0,0-33.37-11.47-37-41.83c0,0-48.75,15.37-79.42-0.85c0,0-19.04-5.74-19.86,2.56c0,0-6.38,34.35-40.61,43.54
	L52.36,209.75z"/>
</svg>
