<?xml version="1.0" encoding="utf-8"?>
<!-- Generator: Adobe Illustrator 25.2.1, SVG Export Plug-In . SVG Version: 6.00 Build 0)  -->
<svg version="1.1" id="Layer_1" xmlns="http://www.w3.org/2000/svg" xmlns:xlink="http://www.w3.org/1999/xlink" x="0px" y="0px"
	 viewBox="0 0 295.3 424.53" style="enable-background:new 0 0 295.3 424.53;" xml:space="preserve">
<style type="text/css">
	.st0{fill:#FFFFFF;}
	.st1{fill:#3B434F;}
	.st2{opacity:0.0588;fill:#3B434F;enable-background:new    ;}
	.st3{fill:#EDF1F1;}
	.st4{filter:url(#Adobe_OpacityMaskFilter);}
	.st5{mask:url(#_1_2_);fill:#3B434F;}
	.st6{opacity:0.2;fill:#3B434F;enable-background:new    ;}
</style>
<g>
	<path id="body-bg-flat_copy_5_" class="st0" d="M1.72,420.95c0,0-6.61-89.99,78.08-98.39h37.97v-17.49c0,0,26.71,11.47,53.76,1.28
		l0.85,16.21h44.37c0,0,75.99,2.98,72.53,99.24L1.72,420.95z"/>
	<path id="Rounded_Rectangle_13_1_" class="st1" d="M290.03,424.53L290.03,424.53H5.52l0,0H0L1.38,401c2.69-45.94,38.89-81,80.31-81
		h31.52v4.69H84.2c-39.92,0-74.81,33.75-77.4,77.97l-0.96,16.32h283.44l-0.53-16.32c-2.59-44.22-37.48-77.97-77.4-77.97h-38.83V320
		h41.09c41.42,0,77.62,35.06,80.31,81l1.38,23.53H290.03z"/>
	<path id="Ellipse_4_1_" class="st1" d="M143.08,372.91c-22.86,0-41.39-18.53-41.39-41.39c0-4,0.58-7.86,1.64-11.52h0.07h4.39h7.55
		v4.69h-8.75c-0.41,2.21-0.64,4.49-0.64,6.83c0,20.5,16.62,37.12,37.12,37.12c20.5,0,37.12-16.62,37.12-37.12
		c0-2.33-0.22-4.61-0.64-6.83h-8.75V320h7.55h4.39h0.07c1.06,3.66,1.64,7.52,1.64,11.52C184.47,354.38,165.94,372.91,143.08,372.91z
		"/>
	<path id="neck_1_" class="st1" d="M118.76,303.09v26.32c0,13.66,11.08,24.73,24.75,24.73s24.75-11.07,24.75-24.73v-25.77
		c1.44-0.44,2.86-0.91,4.27-1.42v27.38c0,16.15-13.09,29.24-29.23,29.24s-29.23-13.09-29.23-29.24V301.4
		C115.61,302.01,117.18,302.57,118.76,303.09z"/>
	<path id="_x32__copy_5_7_" class="st0" d="M144.57,35.41c53.08,0,94.97,49.6,93.61,109.2l-1.45,63.34
		c-1.28,56.15-42.53,100.53-92.16,100.53S53.69,264.1,52.41,207.95l-1.45-63.34C49.6,85.01,91.5,35.41,144.57,35.41z"/>
	<path id="_x32__line_7_" class="st1" d="M242.45,142.65l-1.52,65.91c-1.34,58.43-44.57,104.61-96.57,104.61
		s-95.23-46.18-96.57-104.61l-1.52-65.91C44.85,80.63,88.74,29.01,144.36,29.01S243.88,80.63,242.45,142.65z M144.15,35.84
		c-52.35,0-93.67,49.21-92.33,108.35l1.43,62.85c1.27,55.71,41.95,99.74,90.9,99.74s89.64-44.03,90.9-99.74l1.43-62.85
		C237.82,85.05,196.5,35.84,144.15,35.84z"/>
	<path id="_x31__copy_4_2_" class="st2" d="M239.79,153.6l-4.27,69.97c0,0-18.95,80.77-92.16,90.33v0.12
		c-0.14-0.02-0.28-0.04-0.43-0.06c-0.14,0.02-0.28,0.04-0.43,0.06v-0.12c-73.21-9.56-92.16-90.33-92.16-90.33l-4.27-69.97
		c19,84.33,34.99,89.6,34.99,89.6c-3.24-25.57,23.04-23.04,23.04-23.04c16.01,2.71,28.76,4.01,38.83,4.5
		c10.06-0.49,22.81-1.8,38.83-4.5c0,0,26.28-2.53,23.04,23.04C204.8,243.2,220.79,237.93,239.79,153.6z M192.34,251.87
		c-1.24-15.04-10.31-13.77-10.31-13.77c-16.12,4.74-28.78,7.38-38.67,8.72v-0.1c-9.82-1.33-22.39-3.94-38.4-8.65
		c0,0-9.01-1.27-10.24,13.65c0,0-3.62,14.95,8.53,21.33l15.36,16.21c0,0,10.5,3.33,10.24-9.39c0,0-1.07-9.48,5.12-11.09h9.39v0.28
		h9.45c6.23,1.62,5.16,11.19,5.16,11.19c-0.26,12.82,10.31,9.46,10.31,9.46l15.47-16.35C195.98,266.94,192.34,251.87,192.34,251.87z
		"/>
	<path id="Rounded_Rectangle_3_2_" class="st1" d="M134.12,274.77h20.48c0.94,0,1.71,0.76,1.71,1.71c0,0.94-0.76,1.71-1.71,1.71
		h-20.48c-0.94,0-1.71-0.76-1.71-1.71C132.41,275.54,133.18,274.77,134.12,274.77z"/>
	<path id="_x32__2_" class="st1" d="M116.2,254.35l2.38-3.33c7.64,4.37,16.72,6.9,26.46,6.9c9.85,0,19.02-2.59,26.71-7.05l2.49,3.44
		c-8.37,4.84-18.34,7.66-29.05,7.66C134.5,261.97,124.55,259.17,116.2,254.35z"/>
	<path id="Shape_11_copy_7_" class="st0" d="M46.17,152.26c-0.01,0-1.05-0.83-3-1.44c-0.98-0.31-2.19-0.56-3.58-0.62
		c-0.35-0.02-0.7-0.02-1.07-0.01s-0.74,0.03-1.12,0.08c-0.76,0.08-1.54,0.23-2.33,0.45c-3.15,0.91-6.37,3.11-8.25,7.65
		c-0.95,2.27-1.57,5.13-1.74,8.71c-0.04,0.89-0.05,1.83-0.04,2.82c0.02,0.99,0.07,2.02,0.15,3.1c0.16,2.16,0.46,4.52,0.9,7.09
		c-0.01,0-0.41,7.77,2.37,16.7c2.61,8.73,8.89,19.46,20.47,22.52C47.6,197.13,47.56,174.54,46.17,152.26L46.17,152.26z"/>
	<path id="Shape_3_7_" class="st1" d="M47.49,153.15c0,0-20.18-6.25-19.47,14.49c0,0,3,30.08,4.31,32.85c0,0,7.92,17.51,21,18.29
		c12.78,0.76,0,0,0,0l0.16,5.64c0,0-22.98-2.95-27.42-29.43l-3.5-24.06c0,0-2.72-31.84,23.67-23.75c25.71,7.89,0,0,0,0L47.49,153.15
		"/>
	<path id="Shape_4_7_" class="st1" d="M40.83,194.94c0,0-1.13,0.85-2.1,0.85s-2.09-0.85-2.09-0.85l-2.08-20.98
		c0,0,2.87-10.33,15.06-4.87l0.29,6c0,0-10.7-3.79-10.47,0.93C39.65,180.56,40.83,194.94,40.83,194.94z"/>
	<path id="Shape_11_copy_x5F_1_7_" class="st0" d="M242.17,152.31c0.01,0,1.05-0.83,3.02-1.44c0.98-0.31,2.2-0.56,3.59-0.62
		c0.35-0.02,0.7-0.02,1.07-0.01c0.37,0.01,0.74,0.03,1.12,0.08c0.76,0.08,1.55,0.23,2.34,0.45c3.16,0.9,6.39,3.11,8.29,7.65
		c0.95,2.27,1.58,5.13,1.75,8.7c0.04,0.89,0.05,1.83,0.04,2.82c-0.02,0.99-0.07,2.02-0.15,3.1c-0.16,2.16-0.46,4.52-0.9,7.09
		c0.01,0,0.41,7.76-2.38,16.69c-2.62,8.73-8.92,19.45-20.56,22.51C240.73,197.15,240.77,174.57,242.17,152.31L242.17,152.31z"/>
	<path id="Shape_3_x5F_1_7_" class="st1" d="M240.84,153.2c0,0,20.26-6.25,19.55,14.48c0,0-3.02,30.06-4.33,32.83
		c0,0-7.96,17.5-21.09,18.28c-12.84,0.76,0,0,0,0l-0.16,5.64c0,0,23.09-2.94,27.54-29.41l3.52-24.05c0,0,2.73-31.82-23.77-23.73
		c-25.82,7.88,0,0,0,0L240.84,153.2"/>
	<path id="Shape_4_x5F_1_7_" class="st1" d="M247.53,194.96c0,0,1.13,0.85,2.11,0.85s2.09-0.85,2.09-0.85l2.09-20.97
		c0,0-2.89-10.33-15.13-4.87l-0.29,6c0,0,10.74-3.79,10.52,0.93C248.71,180.59,247.53,194.96,247.53,194.96z"/>
	<path id="new_vector_shape_done_7_" class="st1" d="M152.25,193.28c0.5,0,1,0,1.49,0c3.09,4.19,4.34,10.64,5.97,16.21
		c0.51,1.73,0.02,4.75-0.43,5.97c-1.62,4.48-6.7,4.4-10.88,6.4c-1.12,0.54-1.96,1.47-3.41,1.71c-0.95-0.84-2.09-1-2.56-2.35
		c-1.15-1.59,0.33-2.58,1.49-3.2c2.11-1.13,8.61-2.24,9.39-4.27c0.96-1.1,0.32-4.39,0-5.55c-0.83-2.96-1.22-5.44-2.35-8.11
		c-0.75-1.77-2.06-3.65-1.28-5.76C150.34,194.07,151.73,193.76,152.25,193.28z"/>
	<path id="oko_5_" class="st1" d="M94.87,157.01c4.71,0,8.53,3.82,8.53,8.53s-3.82,8.53-8.53,8.53s-8.53-3.82-8.53-8.53
		S90.15,157.01,94.87,157.01z"/>
	<path id="oko_1_5_" class="st1" d="M194.71,157.01c4.71,0,8.53,3.82,8.53,8.53s-3.82,8.53-8.53,8.53c-4.71,0-8.53-3.82-8.53-8.53
		S189.99,157.01,194.71,157.01z"/>
	<path id="Ellipse_3_4_" class="st3" d="M195.99,188.59c5.89,0,10.67,4.78,10.67,10.67s-4.78,10.67-10.67,10.67
		c-5.89,0-10.67-4.78-10.67-10.67S190.09,188.59,195.99,188.59z"/>
	<path id="Ellipse_3_copy_8_" class="st3" d="M92.73,188.59c5.89,0,10.67,4.78,10.67,10.67s-4.78,10.67-10.67,10.67
		c-5.89,0-10.67-4.78-10.67-10.67S86.84,188.59,92.73,188.59z"/>
	<path id="R_copy_5_" class="st1" d="M171.69,145.39c0,0,25.54-14.6,43.79,1.49l4.83,0.75c0,0-6.18-22.5-51.2-7.87l1.25,4.19
		 M171.36,143.95c0,0,25.99-14.93,43.12,3.93l8.83-0.25c0,0-11.01-24.03-56.2-8.87l4.25,6.19"/>
	<path id="R_copy_3_4_" class="st1" d="M116.8,145.47c0,0-25.46-14.48-43.65,1.47l-4.81,0.74c0,0,6.16-22.3,51.03-7.8l-1.25,4.16
		 M117.12,144.04c0,0-25.9-14.79-42.98,3.89l-8.8-0.25c0,0,10.97-23.82,56.01-8.79l-4.24,6.14"/>
	<path id="Shape_6_copy_3_2_" class="st1" d="M49.11,148.48c0,0,3.29-51.4,35.01-74.24c0,0,45.8,31.15,117.84,0
		c0,0,31.86,14.51,36.72,74.24h1.71c0,0,9.12-68.41-14.52-95.57c0,0-5.82-20.8-36.72-35.84l-11.1,6.83c0,0-7.46-9.13-27.32-20.48
		c0,0-14.69,6.55-22.2,17.92l-11.95-7.68c0,0-16.7,7.65-26.47,21.33l-17.93,2.56l-9.39,17.07c0,0-22.42,18.06-15.37,92.16
		L49.11,148.48z"/>
	<defs>
		<filter id="Adobe_OpacityMaskFilter" filterUnits="userSpaceOnUse" x="43.47" y="0" width="202.06" height="148.91">
			<feColorMatrix  type="matrix" values="1 0 0 0 0  0 1 0 0 0  0 0 1 0 0  0 0 0 1 0"/>
		</filter>
	</defs>
	<mask maskUnits="userSpaceOnUse" x="43.47" y="0" width="202.06" height="148.91" id="_1_2_">
		<g id="g6704_2_" class="st4">
			<path id="path6706_2_" class="st0" d="M-114.64-81.05h512v512h-512V-81.05z"/>
			<path id="path6708_2_" d="M49.21,128c0,0,5.92-35.72,34.91-57.6c0,0,47.08,32.01,119.12,0.85c0,0,26.62,12.52,35.84,57.17l0,0
				c0,0,5.48-45.93-15.36-74.24c0,0-3.67-18.67-34.56-33.71l-11.52,6.83c0,0-7.44-9.13-27.31-20.48c0,0-13.4,6.97-20.91,18.35
				l-12.8-8.11c0,0-15.41,7.22-25.17,20.91l-17.07,2.56l-8.96,16.21c0,0-18.61,14.21-16.64,71.68L49.21,128z"/>
		</g>
	</mask>
	<path id="Shape_6_copy_2_" class="st5" d="M52.1,148.91c0,0,4.32-48.05,32.02-71.68c0,0,45.8,31.58,117.84,0.43
		c0,0,28.88,10.67,33.73,70.4l8.11,0.43c0,0,9.12-68.84-14.52-96c0,0-8.38-23.79-39.28-38.83l-11.51,6.4c0,0-7.44-8.7-27.31-20.05
		c0,0-15.53,5.69-23.04,17.07l-11.15-7.25c0,0-17.98,8.5-27.75,22.19l-18.79,2.56L60.21,53.33c0,0-22.42,19.34-15.37,93.44
		L52.1,148.91z"/>
	<path id="new_x5F_vector_x5F_shape_x5F_done_copy_2_" class="st6" d="M145.5,22.62c0.63,0.47,0.32,0.9,0.18,1.48
		c-0.2,0.87-0.44,1.73-0.58,2.6c-0.21,1.32-0.39,2.64-0.45,3.94c-0.05,1.09-0.03,2.18-0.01,3.26c0.01,0.62,0.12,1.25,0.13,1.87
		c0.01,0.25,0.07,0.5,0.08,0.75c0.02,0.07,0.03,0.14,0.05,0.21c0.01,0.32,0.09,0.62,0.1,0.94c0.05,0.29,0.1,0.58,0.16,0.87
		c0.08,0.46,0.11,0.93,0.25,1.38c0.02,0.11,0.03,0.23,0.05,0.34c0.11,0.35,0.15,0.72,0.26,1.07c0.01,0.07,0.02,0.14,0.02,0.21
		c0.16,0.51,0.24,1.05,0.4,1.56c0.26,0.83,0.48,1.66,0.77,2.48c0.19,0.55,0.36,1.12,0.55,1.67c0.34,0.98,0.76,1.94,1.14,2.9
		c0.23,0.59,0.54,1.13,0.79,1.72c0.7,1.66,1.59,3.29,2.45,4.92c0.28,0.53,0.58,1.01,0.89,1.52c0.2,0.33,0.4,0.7,0.58,1.03
		c0.1,0.19,0.23,0.33,0.33,0.51c0.24,0.39,0.49,0.82,0.72,1.21c0.21,0.37,0.46,0.68,0.69,1.04c0.26,0.39,0.51,0.82,0.77,1.21
		c0.45,0.67,0.93,1.32,1.37,1.99c0.46,0.69,0.98,1.3,1.47,1.98c0.95,1.32,2.06,2.58,3.08,3.9c0.31,0.4,0.67,0.74,0.98,1.12
		c0.15,0.19,0.41,0.36,0.51,0.56c0.04,0.08,0.07,0.21,0.1,0.3c0.05,0.15,0.04,0.33,0.04,0.49c0,0.25,0.02,0.51-0.03,0.77
		c-0.05,0.27-0.22,0.58-0.33,0.85c-0.09,0.22-0.32,0.41-0.44,0.51c-0.11,0.09-0.15,0.17-0.26,0.26c-0.29,0.22-0.61,0.41-0.92,0.5
		c-0.32,0.1-0.74-0.19-1-0.5c-0.45-0.54-1.01-1.03-1.44-1.57c-0.09-0.12-0.19-0.17-0.28-0.28c-0.5-0.63-1.11-1.22-1.6-1.84
		c-0.11-0.14-0.23-0.22-0.34-0.36c-0.38-0.5-0.83-0.94-1.21-1.45c-0.97-1.27-2.01-2.49-2.89-3.77c-0.2-0.3-0.42-0.53-0.63-0.83
		c-1.42-2.12-2.84-4.2-3.98-6.36c-0.3-0.57-0.63-1.09-0.91-1.66c-0.79-1.62-1.54-3.24-2.22-4.87c-0.09-0.21-0.15-0.45-0.24-0.67
		c-0.37-0.98-0.71-1.95-1.04-2.93c-0.34-0.99-0.53-2.03-0.84-3.02c-0.07-0.21-0.09-0.44-0.15-0.65c-0.01-0.08-0.02-0.16-0.03-0.23
		c-0.07-0.23-0.08-0.48-0.15-0.71c-0.17-0.55-0.22-1.14-0.32-1.7c-0.09-0.53-0.21-1.07-0.22-1.61c-0.02-0.1-0.04-0.2-0.06-0.29
		c-0.01-0.35-0.1-0.7-0.11-1.04c-0.02-0.6-0.11-1.21-0.12-1.81c-0.01-0.75-0.04-1.5-0.04-2.25c0-0.75,0.07-1.49,0.11-2.24
		c0.12-2.05,0.49-4.11,0.99-6.24c0.18-0.77,0.47-1.52,0.71-2.3c0.17-0.53,0.43-1.04,0.62-1.57c0.05-0.14,0.13-0.22,0.18-0.36
		c0.11-0.3,0.26-0.66,0.53-0.86c0.12-0.09,0.4-0.13,0.55-0.09C145.34,22.54,145.41,22.62,145.5,22.62z M125.48,37.33
		c0.45,0.33,0.42,0.81,0.43,1.22c0.01,0.42,0.13,0.84,0.14,1.26c0.05,0.29,0.1,0.59,0.15,0.88c0.01,0.24,0.07,0.46,0.1,0.69
		c0.04,0.24,0.06,0.48,0.13,0.71c0.04,0.26,0.09,0.53,0.13,0.79c0.07,0.23,0.08,0.48,0.15,0.71c0.22,0.71,0.31,1.45,0.53,2.16
		c0.24,0.75,0.41,1.52,0.67,2.26c0.34,0.97,0.67,1.95,1.04,2.91c0.19,0.49,0.41,0.95,0.61,1.45c0.15,0.38,0.3,0.78,0.48,1.15
		c0.73,1.52,1.48,3.05,2.28,4.57c0.63,1.2,1.39,2.35,2.08,3.54c0.21,0.37,0.46,0.68,0.69,1.04c0.54,0.8,1.11,1.64,1.65,2.46
		c0.52,0.77,1.14,1.49,1.69,2.25c0.09,0.12,0.19,0.19,0.28,0.32c0.28,0.4,0.64,0.78,0.94,1.18c0.15,0.2,0.35,0.33,0.49,0.54
		c0.3,0.45,0.49,1.29,0.35,1.82c-0.25,0.91-1.13,1.52-1.8,1.75c-0.2,0.07-0.52,0.2-0.73,0.13c-0.34-0.1-0.56-0.41-0.77-0.66
		c-0.26-0.33-0.56-0.57-0.82-0.89c-0.47-0.6-1.01-1.14-1.48-1.75c-0.98-1.28-1.97-2.51-2.84-3.81c-2.01-3.01-3.67-6.04-4.97-9.16
		c-0.54-1.29-0.97-2.63-1.41-3.94c-0.15-0.47-0.24-0.97-0.39-1.44c-0.2-0.64-0.29-1.3-0.49-1.94c-0.01-0.08-0.02-0.17-0.03-0.25
		c-0.03-0.14-0.08-0.28-0.1-0.42c-0.02-0.12-0.03-0.24-0.05-0.36c-0.08-0.24-0.09-0.49-0.13-0.73c-0.04-0.24-0.1-0.47-0.11-0.72
		c-0.03-0.16-0.06-0.31-0.09-0.47c-0.02-0.64-0.17-1.27-0.18-1.91c0-0.15-0.05-0.31-0.06-0.47c-0.01-0.62-0.08-1.23-0.07-1.85
		c0-0.7,0-1.42,0.04-2.12c0.02-0.28,0.07-0.54,0.08-0.81c0.01-0.3,0.07-0.6,0.11-0.91c0.02-0.19,0.02-0.41,0.08-0.6
		c0.06-0.19,0.25-0.5,0.43-0.58c0.12-0.05,0.36-0.11,0.5-0.07C125.32,37.25,125.38,37.33,125.48,37.33z M110.17,40.52
		c0.51,0.37,0.37,0.85,0.37,1.31c-0.01,0.74,0.07,1.47,0.09,2.21c0.01,0.59,0.16,1.17,0.18,1.75c0.03,0.19,0.07,0.37,0.1,0.56
		c0.01,0.32,0.08,0.74,0.18,1.05c0.01,0.08,0.02,0.16,0.03,0.23c0.03,0.18,0.07,0.36,0.12,0.53c0.01,0.1,0.03,0.2,0.04,0.3
		c0.13,0.42,0.17,0.87,0.31,1.28c0.32,0.99,0.57,2.01,0.92,3c0.75,2.15,1.79,4.23,2.89,6.32c0.36,0.68,0.81,1.32,1.17,2
		c0.15,0.29,0.36,0.52,0.53,0.8c0.47,0.77,1.01,1.53,1.52,2.29c0.71,1.05,1.57,2.01,2.32,3.05c0.26,0.36,0.6,0.68,0.85,1.03
		c0.23,0.31,0.52,0.55,0.76,0.86c0.48,0.61,1.09,1.19,1.6,1.8c0.3,0.35,0.65,0.64,0.93,0.97c0.32,0.38,0.72,0.68,1.03,1.05
		c0.08,0.07,0.16,0.14,0.24,0.21c0.32,0.38,0.77,0.71,1.1,1.09c0.14,0.16,0.31,0.24,0.45,0.4c0.46,0.53,1.12,0.95,1.59,1.49
		c0.14,0.15,0.32,0.25,0.44,0.39c0.05,0.04,0.1,0.07,0.15,0.11c0.16,0.18,0.42,0.35,0.59,0.54c0.06,0.04,0.11,0.08,0.17,0.12
		c0.27,0.3,0.69,0.54,0.97,0.84c0.07,0.05,0.15,0.1,0.22,0.16c0.35,0.39,0.91,0.66,1.26,1.06c0.16,0.12,0.32,0.24,0.48,0.36
		c0.08,0.09,0.25,0.16,0.34,0.26c0.24,0.27,0.65,0.48,0.91,0.73c0.16,0.15,0.4,0.25,0.53,0.4c0.12,0.13,0.33,0.21,0.43,0.32
		c0.33,0.24,0.67,0.48,1,0.71c0.79,0.56,1.58,1.09,2.34,1.63c0.36,0.26,0.81,0.46,1.03,0.78c0.13,0.18,0.18,0.44,0.24,0.64
		c0.15,0.44,0.21,0.97,0.09,1.45c-0.04,0.15-0.11,0.25-0.17,0.4c-0.09,0.25-0.24,0.63-0.5,0.86c-0.17,0.15-0.35,0.35-0.54,0.48
		c-0.29,0.2-0.61,0.09-0.97-0.05c-0.11-0.08-0.23-0.15-0.34-0.23c-0.55-0.24-1.06-0.74-1.61-0.98c-0.11-0.05-0.22-0.16-0.3-0.2
		c-0.18-0.12-0.37-0.25-0.55-0.37c-0.2-0.09-0.38-0.3-0.61-0.4c-0.19-0.08-0.38-0.24-0.57-0.37c-0.07-0.05-0.14-0.1-0.21-0.15
		c-0.18-0.08-0.4-0.25-0.57-0.37c-0.25-0.18-0.5-0.35-0.74-0.53c-0.27-0.12-0.56-0.38-0.82-0.56c-0.21-0.15-0.5-0.31-0.66-0.49
		c-0.15-0.1-0.29-0.21-0.44-0.31c-0.3-0.22-0.6-0.43-0.87-0.66c-0.15-0.1-0.29-0.21-0.44-0.31c-0.21-0.23-0.58-0.41-0.78-0.64
		c-0.1-0.07-0.2-0.14-0.3-0.21c-0.15-0.17-0.42-0.32-0.57-0.48c-0.09-0.06-0.17-0.12-0.26-0.18c-0.12-0.13-0.32-0.26-0.44-0.39
		c-0.07-0.05-0.14-0.1-0.21-0.15c-0.4-0.44-0.99-0.78-1.38-1.22c-0.12-0.1-0.24-0.2-0.37-0.3c-0.51-0.57-1.19-1.03-1.68-1.59
		c-0.13-0.15-0.28-0.22-0.41-0.37c-0.45-0.52-1.03-0.99-1.46-1.51c-0.07-0.09-0.14-0.11-0.21-0.19c-0.2-0.25-0.47-0.5-0.67-0.75
		c-0.09-0.12-0.19-0.16-0.28-0.28c-0.69-0.87-1.49-1.64-2.16-2.51c-1.18-1.54-2.41-3.04-3.34-4.63c-0.21-0.36-0.46-0.66-0.67-1.02
		c-0.36-0.63-0.76-1.26-1.1-1.91c-0.53-1.01-1.03-2.04-1.52-3.06c-0.34-0.72-0.61-1.49-0.89-2.22c-0.23-0.6-0.45-1.19-0.66-1.79
		c-0.21-0.59-0.36-1.21-0.55-1.81c-0.2-0.61-0.28-1.25-0.47-1.86c-0.07-0.23-0.07-0.52-0.14-0.76c-0.18-0.57-0.22-1.19-0.32-1.78
		c-0.42-2.5-0.46-5.06-0.28-7.67c0.04-0.6,0.17-1.17,0.27-1.78c0.04-0.28,0.14-0.63,0.45-0.84c0.1-0.07,0.41-0.12,0.53-0.09
		C110.01,40.44,110.09,40.52,110.17,40.52z"/>
</g>
</svg>
