<?xml version="1.0" encoding="utf-8"?>
<!-- Generator: Adobe Illustrator 25.2.1, SVG Export Plug-In . SVG Version: 6.00 Build 0)  -->
<svg version="1.1" xmlns="http://www.w3.org/2000/svg" xmlns:xlink="http://www.w3.org/1999/xlink" x="0px" y="0px"
	 viewBox="0 0 295.3 424.53" style="enable-background:new 0 0 295.3 424.53;" xml:space="preserve">
<style type="text/css">
	.st0{fill:#FFFFFF;}
	.st1{fill:#3B434F;}
	.st2{fill:#F5F3EF;}
	.st3{fill:#EDF1F1;}
	.st4{fill:#3B444F;}
</style>
<g id="Layer_1">
	<path id="body-bg-flat_5_" class="st0" d="M2.81,422.93c0,0-10.3-90.31,78.44-100.39h37.97v-17.49c0,0,26.71,11.47,53.76,1.28
		l0.85,16.21h44.37c0,0,77.27,7.71,72.6,100.39H2.81z"/>
	<path id="Rounded_Rectangle_13_copy_2_" class="st1" d="M290.08,424.51L290.08,424.51H5.56l0,0H0.04l1.38-23.53
		c2.69-45.94,38.89-81,80.31-81h31.52v4.69H84.24c-39.92,0-74.81,33.75-77.4,77.97l-0.96,16.32h283.44l-0.53-16.32
		c-2.59-44.22-37.48-77.97-77.4-77.97h-38.83v-4.69h41.09c41.42,0,77.62,35.06,80.31,81l1.38,23.53H290.08z"/>
	<path id="neck_copy_5_2_" class="st1" d="M123.49,303.07v26.32c0,13.66,11.08,24.73,24.75,24.73s24.75-11.07,24.75-24.73v-25.77
		c1.44-0.44,2.86-0.91,4.27-1.42v27.38c0,16.15-13.09,29.24-29.23,29.24s-29.23-13.09-29.23-29.24v-28.19
		C120.35,301.99,121.91,302.55,123.49,303.07z"/>
	<path id="Rounded_Rectangle_14_2_" class="st1" d="M118.59,353.69c1.53,0,2.77,1.24,2.77,2.77v41.81c0,1.53-1.24,2.77-2.77,2.77
		c-1.53,0-2.77-1.24-2.77-2.77v-41.81C115.81,354.93,117.06,353.69,118.59,353.69z"/>
	<path id="Rounded_Rectangle_15_2_" class="st1" d="M176.83,353.26c1.65,0,2.99,1.34,2.99,2.99v26.03c0,1.65-1.34,2.99-2.99,2.99
		c-1.65,0-2.99-1.34-2.99-2.99v-26.03C173.84,354.6,175.18,353.26,176.83,353.26z"/>
	<path id="Rounded_Rectangle_16_2_" class="st1" d="M118.59,398.06c0.82,0,1.49,0.67,1.49,1.49v10.67c0,0.82-0.67,1.49-1.49,1.49
		c-0.82,0-1.49-0.67-1.49-1.49v-10.67C117.09,398.73,117.76,398.06,118.59,398.06z"/>
	<path id="Rounded_Rectangle_16_copy_2_" class="st1" d="M177.04,382.27c0.82,0,1.49,0.67,1.49,1.49v10.67
		c0,0.82-0.67,1.49-1.49,1.49c-0.82,0-1.49-0.67-1.49-1.49v-10.67C175.55,382.94,176.22,382.27,177.04,382.27z"/>
	<path id="Shape_1_copy_2_" class="st2" d="M102.58,292.57l-27.02,6.21c0,0-33.09,7.5-11.08,29.8
		c22.02,22.3,78.64,26.24,78.64,26.24s-14.97-7.09-21.33-17.07l-2.13-35.84L102.58,292.57z"/>
	<path id="Shape_1_copy_2_2_" class="st1" d="M143.97,356.95c-1.68,2.12-48.83,0.66-81.49-27.73
		c-23.65-20.56,11.95-32.43,11.95-32.43l26.03-5.97l22.61,11.52l1.71,34.56C134.29,351.83,146.67,353.54,143.97,356.95z
		 M120.51,338.61l-2.56-36.27l-13.65-7.68l-26.03,6.4c0,0-31.52,6.46-11.52,25.17c21.59,20.19,61.53,25.61,65.71,25.17
		C136.78,350.96,130.03,353.53,120.51,338.61z"/>
	<path id="Shape_1_copy_4_2_" class="st2" d="M193.87,293.58l27.04,6.22c0,0,33.11,7.52,11.08,29.89
		c-22.03,22.37-78.69,26.32-78.69,26.32s14.98-7.11,21.35-17.12l2.13-35.95L193.87,293.58z"/>
	<path id="Shape_1_copy_6_2_" class="st1" d="M152.45,357.72c1.68,2.13,48.86,0.67,81.54-27.82c23.67-20.62-11.95-32.52-11.95-32.52
		L196,291.39l-22.63,11.55l-1.71,34.66C162.14,352.58,149.75,354.3,152.45,357.72z M175.93,339.32l2.56-36.38l13.66-7.7l26.04,6.42
		c0,0,31.54,6.48,11.53,25.25c-21.6,20.25-61.56,25.69-65.75,25.25C159.65,351.71,166.41,354.29,175.93,339.32z"/>
	<path id="_x32__copy_5_10_" class="st0" d="M150.03,35.39c53.08,0,94.97,49.6,93.61,109.2l-1.45,63.34
		c-1.28,56.15-42.53,100.53-92.16,100.53s-90.88-44.38-92.16-100.53l-1.45-63.34C55.06,84.99,96.95,35.39,150.03,35.39z"/>
	<path id="_x32__line_10_" class="st1" d="M247.9,142.63l-1.52,65.91c-1.34,58.43-44.57,104.61-96.57,104.61
		s-95.23-46.18-96.57-104.61l-1.52-65.91C50.3,80.61,94.2,28.99,149.82,28.99S249.33,80.61,247.9,142.63z M149.6,35.82
		c-52.35,0-93.67,49.21-92.33,108.35l1.43,62.85c1.27,55.71,41.95,99.74,90.9,99.74s89.64-44.03,90.9-99.74l1.43-62.85
		C243.28,85.03,201.95,35.82,149.6,35.82z"/>
	<path id="Shape_1_2_" class="st1" d="M239.34,245.85c-1.26,5.97-17.85,60.1-14.85,36.67c3-23.43-28.82,21.29-28.82,21.29
		c-5.88,6.04-29.69,20.11-29.69,20.11V318l-17.47,7.1l-7.86-7.1l-0.87,7.1C137.44,321.63,90,289.62,90,289.62s8.14,14.49,1.75,7.1
		c-0.23-0.26-0.46-0.55-0.7-0.85c-6.47-8.1-16.76-28.72-16.76-28.72l-1.75,14.19c-15.43-30-14.85-67.42-14.85-67.42l-2.6-78.14h6.99
		l2.6,55.67l11.35,18.92c7.34,10.73,27.07,5.91,27.07,5.91c57.02,39.57,93.44-2.37,93.44-2.37s24.7,5.48,32.31,2.37
		c7.61-3.12,8.71-80.62,8.71-80.62h6.11C243.68,135.66,240.6,239.88,239.34,245.85z M198.39,251.85
		c-1.25-15.04-10.41-13.77-10.41-13.77c-16.27,4.74-29.04,7.38-39.02,8.72v-0.1c-9.91-1.33-22.59-3.94-38.75-8.65
		c0,0-9.09-1.27-10.33,13.65c0,0-3.65,11.53,8.61,17.92l15.5,8.53c0,0,10.59,3.33,10.33-9.39c0,0-1.08-1.8,5.17-3.41h9.47v0.28h9.54
		c6.29,1.62,5.2,3.51,5.2,3.51c-0.26,12.82,10.41,9.46,10.41,9.46l15.61-8.67C202.06,263.51,198.39,251.85,198.39,251.85z"/>
	<path id="usta_12_" class="st1" d="M195.89,246.25c-7.76,6.73-25.27,13.14-45.65,13.14c-20.38,0-37.9-6.41-45.65-13.14
		c0,0-0.79-2.18,0.37-3.35c1.19-1.19,3.04-0.93,3.04-0.93c7.75,6.74,21.85,12.3,42.24,12.3c20.39,0,34.49-5.56,42.24-12.3
		c0,0,1.9-0.7,2.82,0.22C197.07,243.97,195.89,246.25,195.89,246.25z"/>
	<path id="_x2D__13_" class="st1" d="M136.16,269.63h27.31v4.27h-27.31V269.63z"/>
	<path id="Shape_11_copy_17_" class="st0" d="M51.62,152.24c-0.01,0-1.05-0.83-3-1.44c-0.98-0.31-2.19-0.56-3.58-0.62
		c-0.35-0.02-0.7-0.02-1.07-0.01s-0.74,0.03-1.12,0.08c-0.76,0.08-1.54,0.23-2.33,0.45c-3.15,0.91-6.37,3.11-8.25,7.65
		c-0.95,2.27-1.57,5.13-1.74,8.71c-0.04,0.89-0.05,1.83-0.04,2.82c0.02,0.99,0.07,2.02,0.15,3.1c0.16,2.16,0.46,4.52,0.9,7.09
		c-0.01,0-0.41,7.77,2.37,16.7c2.61,8.73,8.89,19.46,20.47,22.52C53.06,197.11,53.01,174.52,51.62,152.24L51.62,152.24z"/>
	<path id="Shape_3_17_" class="st1" d="M52.94,153.13c0,0-20.18-6.25-19.47,14.49c0,0,3,30.08,4.31,32.85c0,0,7.92,17.51,21,18.29
		c12.78,0.76,0,0,0,0l0.16,5.64c0,0-22.98-2.95-27.42-29.43l-3.5-24.06c0,0-2.72-31.84,23.67-23.75c25.71,7.89,0,0,0,0L52.94,153.13
		"/>
	<path id="Shape_4_17_" class="st1" d="M46.28,194.92c0,0-1.13,0.85-2.1,0.85s-2.09-0.85-2.09-0.85l-2.08-20.98
		c0,0,2.87-10.33,15.06-4.87l0.29,6c0,0-10.7-3.79-10.47,0.93C45.11,180.54,46.28,194.92,46.28,194.92z"/>
	<path id="Shape_11_copy_x5F_1_14_" class="st0" d="M247.63,152.29c0.01,0,1.05-0.83,3.02-1.44c0.98-0.31,2.2-0.56,3.59-0.62
		c0.35-0.02,0.7-0.02,1.07-0.01c0.37,0.01,0.74,0.03,1.12,0.08c0.76,0.08,1.55,0.23,2.34,0.45c3.16,0.9,6.39,3.11,8.29,7.65
		c0.95,2.27,1.58,5.13,1.75,8.7c0.04,0.89,0.05,1.83,0.04,2.82c-0.02,0.99-0.07,2.02-0.15,3.1c-0.16,2.16-0.46,4.52-0.9,7.09
		c0.01,0,0.41,7.76-2.38,16.69c-2.62,8.73-8.92,19.45-20.56,22.51C246.19,197.13,246.23,174.55,247.63,152.29L247.63,152.29z"/>
	<path id="Shape_3_x5F_1_17_" class="st1" d="M246.3,153.18c0,0,20.26-6.25,19.55,14.48c0,0-3.02,30.06-4.33,32.83
		c0,0-7.96,17.5-21.09,18.28c-12.84,0.76,0,0,0,0l-0.16,5.64c0,0,23.09-2.94,27.54-29.41l3.52-24.05c0,0,2.73-31.82-23.77-23.73
		c-25.82,7.88,0,0,0,0L246.3,153.18"/>
	<path id="Shape_4_x5F_1_17_" class="st1" d="M252.99,194.94c0,0,1.13,0.85,2.11,0.85s2.09-0.85,2.09-0.85l2.09-20.97
		c0,0-2.89-10.33-15.13-4.87l-0.29,6c0,0,10.74-3.79,10.52,0.93C254.17,180.57,252.99,194.94,252.99,194.94z"/>
	<path id="new_vector_shape_done_17_" class="st1" d="M157.71,193.26c0.5,0,1,0,1.49,0c3.09,4.19,4.34,10.64,5.97,16.21
		c0.51,1.73,0.02,4.75-0.43,5.97c-1.62,4.48-6.7,4.4-10.88,6.4c-1.12,0.54-1.96,1.47-3.41,1.71c-0.95-0.84-2.09-1-2.56-2.35
		c-1.15-1.59,0.33-2.58,1.49-3.2c2.11-1.13,8.61-2.24,9.39-4.27c0.96-1.1,0.32-4.39,0-5.55c-0.83-2.96-1.22-5.44-2.35-8.11
		c-0.75-1.77-2.06-3.65-1.28-5.76C155.79,194.05,157.18,193.74,157.71,193.26z"/>
	<path id="Rounded_Rectangle_8_5_" class="st1" d="M98.61,160.41h5.97c3.3,0,5.97,2.67,5.97,5.97s-2.67,5.97-5.97,5.97h-5.97
		c-3.3,0-5.97-2.67-5.97-5.97S95.32,160.41,98.61,160.41z"/>
	<path id="Rounded_Rectangle_8_copy_5_" class="st1" d="M195.89,160.41h5.97c3.3,0,5.97,2.67,5.97,5.97s-2.67,5.97-5.97,5.97h-5.97
		c-3.3,0-5.97-2.67-5.97-5.97S192.6,160.41,195.89,160.41z"/>
	<path id="Ellipse_3_9_" class="st3" d="M201.44,188.57c5.89,0,10.67,4.78,10.67,10.67s-4.78,10.67-10.67,10.67
		c-5.89,0-10.67-4.78-10.67-10.67S195.55,188.57,201.44,188.57z"/>
	<path id="Ellipse_3_copy_14_" class="st3" d="M98.19,188.57c5.89,0,10.67,4.78,10.67,10.67s-4.78,10.67-10.67,10.67
		c-5.89,0-10.67-4.78-10.67-10.67S92.3,188.57,98.19,188.57z"/>
	<path id="glasses_2_" class="st4" d="M242.75,147.81c-0.58,4.93-1.08,10.96-2.15,16.36c-3.19,16.13-17.05,31.07-40.71,32.77
		c-23.66,1.7-43.8-10.21-44.98-26.61c-0.2-2.78-0.74-5.9-1.15-8.93c-3.35-1.86-6.8-1.86-10.35-0.01c-0.42,3.1-0.97,6.3-1.18,9.15
		c-1.18,16.45-21.39,28.4-45.13,26.7s-37.64-16.7-40.84-32.88c-1.07-5.41-1.58-11.46-2.16-16.41l-3.49-0.25l0.49-6.81l0.85,0.06
		l21.59,1.55l18.22,1.31l18.26,1.31l28.44,2.05c1.96,0.25,3.27,1.09,4.11,2.34c4.08,1.79,8.05,1.79,11.9,0.02
		c0.83-1.34,2.15-2.24,4.19-2.49l28.35-2.04l18.2-1.31l18.17-1.31l21.52-1.55l0.85-0.06l0.49,6.79L242.75,147.81z M130.83,155.16
		l-55.73-4.01c-7.29-0.63-9.87,7.56-10.32,13.81c-0.95,13.16,13.72,24.94,32.76,26.31c19.04,1.37,35.24-8.19,36.19-21.35
		C134.17,163.68,136.21,159.82,130.83,155.16z M232.12,164.77c-0.45-6.22-3.02-14.39-10.29-13.76l-55.56,4
		c-5.36,4.64-3.33,8.49-2.88,14.71c0.94,13.12,17.09,22.65,36.07,21.28C218.44,189.63,233.06,177.89,232.12,164.77z"/>
</g>
<g id="Layer_2">
	<path class="st1" d="M242.95,135.37C239.59,45.84,163.48,33.91,149,32.45c0-0.13,0-0.19,0-0.19s-0.41,0.02-1.16,0.09
		c-0.78-0.06-1.21-0.09-1.21-0.09s0,0.07,0,0.2c-14.12,1.5-86.86,13.57-90.07,102.91c-1.16,32.4,17.19-55.7,37.93-54.52
		c21.94,2.89,22.52,8.02,52.15,8.28c0,0,0,0.01,0,0.01c0.42,0,0.8,0,1.21-0.01c0.39,0,0.76,0.01,1.16,0.01c0,0,0-0.01,0-0.01
		c30.97-0.25,31.54-5.39,54.43-8.28C225.04,79.67,244.16,167.77,242.95,135.37z"/>
</g>
</svg>
